<?xml version="1.0" encoding="UTF-8" standalone="no"?>
<svg
   xmlns:dc="http://purl.org/dc/elements/1.1/"
   xmlns:cc="http://creativecommons.org/ns#"
   xmlns:rdf="http://www.w3.org/1999/02/22-rdf-syntax-ns#"
   xmlns:svg="http://www.w3.org/2000/svg"
   xmlns="http://www.w3.org/2000/svg"
   xmlns:sodipodi="http://sodipodi.sourceforge.net/DTD/sodipodi-0.dtd"
   xmlns:inkscape="http://www.inkscape.org/namespaces/inkscape"
   width="185"
   height="188"
   viewBox="0 0 185 188"
   id="svg3281"
   version="1.1"
   inkscape:version="0.48.5 r10040"
   sodipodi:docname="logos.svg">
  <metadata
     id="metadata3407">
    <rdf:RDF>
      <cc:Work
         rdf:about="">
        <dc:format>image/svg+xml</dc:format>
        <dc:type
           rdf:resource="http://purl.org/dc/dcmitype/StillImage" />
      </cc:Work>
    </rdf:RDF>
  </metadata>
  <defs
     id="defs3405" />
  <sodipodi:namedview
     pagecolor="#ffffff"
     bordercolor="#666666"
     borderopacity="1"
     objecttolerance="10"
     gridtolerance="10"
     guidetolerance="10"
     inkscape:pageopacity="0"
     inkscape:pageshadow="2"
     inkscape:window-width="983"
     inkscape:window-height="651"
     id="namedview3403"
     showgrid="false"
     inkscape:zoom="2.5478723"
     inkscape:cx="120.51928"
     inkscape:cy="94.134835"
     inkscape:window-x="0"
     inkscape:window-y="0"
     inkscape:window-maximized="0"
     inkscape:current-layer="svg3281" />
  <g
     fill="#4E4E4E"
     id="g3283">
    <path
       d="M116.07 17.967c0 2.677-.731 4.739-2.194 6.186-1.461 1.447-3.517 2.172-6.165 2.172h-5.149v-16.034h5.508c2.554 0 4.526.657 5.916 1.974 1.388 1.316 2.084 3.217 2.084 5.702zm-4.462.154c0-1.469-.289-2.559-.866-3.268-.577-.709-1.452-1.064-2.628-1.064h-1.252v8.983h.958c1.307 0 2.265-.383 2.875-1.146.607-.765.913-1.933.913-3.505zM123.288 26.545c-2.054 0-3.647-.55-4.785-1.651-1.135-1.1-1.703-2.667-1.703-4.7 0-2.098.526-3.709 1.578-4.831s2.554-1.684 4.506-1.684c1.857 0 3.292.488 4.305 1.465 1.013.976 1.518 2.381 1.518 4.217v1.908h-7.607c.029.695.282 1.24.756 1.634.476.396 1.122.592 1.943.592.747 0 1.436-.071 2.064-.213.626-.143 1.307-.386 2.04-.73v3.082c-.667.344-1.357.581-2.067.713-.713.132-1.561.198-2.548.198zm-.251-9.948c-.5 0-.919.159-1.256.477-.339.319-.536.818-.593 1.497h3.657c-.015-.599-.183-1.078-.505-1.436-.325-.359-.759-.538-1.303-.538zM133.009 26.325l-4.702-12.426h4.44l2.091 7.348.042.187.066.312.06.385.027.378h.075c0-.38.066-.793.196-1.24l2.188-7.37h4.43l-4.703 12.426h-4.21zM146.538 26.325h-4.233v-16.034h9.404v3.476h-5.171v3.061h4.768v3.476h-4.768v6.021zM158.687 26.545c-2.054 0-3.647-.55-4.785-1.651-1.135-1.1-1.703-2.667-1.703-4.7 0-2.098.526-3.709 1.578-4.831s2.554-1.684 4.506-1.684c1.857 0 3.292.488 4.305 1.465 1.013.976 1.518 2.381 1.518 4.217v1.908h-7.608c.029.695.282 1.24.756 1.634.476.396 1.122.592 1.943.592.747 0 1.436-.071 2.064-.213.626-.143 1.307-.386 2.04-.73v3.082c-.667.344-1.357.581-2.067.713-.713.132-1.56.198-2.547.198zm-.251-9.948c-.5 0-.919.159-1.256.477-.339.319-.536.818-.593 1.497h3.657c-.015-.599-.183-1.078-.505-1.436-.325-.359-.759-.538-1.303-.538zM174.699 22.508c0 1.331-.45 2.336-1.349 3.016-.901.68-2.192 1.021-3.876 1.021-.914 0-1.708-.049-2.382-.148-.676-.099-1.364-.28-2.069-.543v-3.433c.661.293 1.384.534 2.172.724s1.489.285 2.106.285c.923 0 1.382-.211 1.382-.635 0-.22-.128-.416-.386-.587-.256-.172-1.007-.506-2.247-1.004-1.132-.468-1.923-1-2.373-1.596-.45-.595-.676-1.35-.676-2.264 0-1.155.443-2.055 1.329-2.698.884-.644 2.137-.966 3.754-.966.813 0 1.577.09 2.292.269.714.179 1.456.44 2.225.784l-1.154 2.764c-.566-.255-1.165-.473-1.796-.652-.63-.179-1.146-.269-1.545-.269-.696 0-1.044.172-1.044.515 0 .212.121.393.364.543.242.15.945.455 2.106.916.862.359 1.507.71 1.932 1.053.425.344.736.748.936 1.212s.299 1.028.299 1.693zM181.765 23.156c.573 0 1.258-.143 2.056-.428v3.126c-.573.248-1.119.426-1.639.532-.518.106-1.126.159-1.822.159-1.43 0-2.461-.353-3.091-1.058-.632-.706-.948-1.79-.948-3.252v-5.122h-1.49v-1.744l1.893-1.349 1.1-2.61h2.785v2.489h3.027v3.214h-3.027v4.837c.001.804.386 1.206 1.156 1.206z"
       id="path3285" />
  </g>
  <g
     fill="#4E4E4E"
     id="g3291">
    <path
       d="M55.729 17.313h6.921v8.643c-1.88.644-3.945.966-6.197.966-2.472 0-4.383-.717-5.731-2.151-1.349-1.433-2.024-3.477-2.024-6.131 0-2.589.739-4.603 2.216-6.044 1.478-1.44 3.547-2.161 6.209-2.161 1.009 0 1.961.095 2.857.285.895.19 1.676.432 2.342.724l-1.371 3.4c-1.155-.57-2.424-.855-3.806-.855-1.265 0-2.243.411-2.934 1.234-.691.822-1.037 1.998-1.037 3.527 0 1.499.313 2.641.938 3.428.625.786 1.526 1.179 2.704 1.179.644 0 1.236-.062 1.777-.187v-2.512h-2.863v-3.345zM78.184 18.344c0 2.677-.737 4.739-2.21 6.187-1.474 1.447-3.545 2.172-6.215 2.172h-5.188v-16.038h5.551c2.574 0 4.561.658 5.961 1.975 1.401 1.317 2.101 3.218 2.101 5.704zm-4.497.154c0-1.47-.291-2.56-.872-3.268-.581-.71-1.464-1.065-2.649-1.065h-1.262v8.984h.965c1.317 0 2.281-.382 2.896-1.146s.922-1.933.922-3.505zM86.15 17.313h6.921v8.643c-1.88.644-3.945.966-6.197.966-2.472 0-4.383-.717-5.731-2.151-1.349-1.433-2.024-3.477-2.024-6.131 0-2.589.739-4.603 2.216-6.044 1.478-1.44 3.547-2.161 6.209-2.161 1.009 0 1.961.095 2.857.285.895.19 1.676.432 2.342.724l-1.371 3.4c-1.155-.57-2.424-.855-3.806-.855-1.265 0-2.243.411-2.934 1.234-.691.822-1.037 1.998-1.037 3.527 0 1.499.313 2.641.938 3.428.625.786 1.526 1.179 2.704 1.179.644 0 1.236-.062 1.777-.187v-2.512h-2.864v-3.345z"
       id="path3293" />
  </g>
  <radialGradient
     id="a"
     cx="-267.421"
     cy="-103.403"
     r="20.114"
     gradientTransform="matrix(.498 0 0 .498 150.953 101.325)"
     gradientUnits="userSpaceOnUse">
    <stop
       offset="0"
       stop-color="#FFCF4F"
       id="stop3296" />
    <stop
       offset="1"
       stop-color="#F4C236"
       id="stop3298" />
  </radialGradient>
  <path
     fill="url(#a)"
     d="M9.068 61h6.791c1.607 0 3.604-1.128 4.432-2.511l5.72-9.519c.677-1.396.653-3.426-.119-4.713l-3.378-5.592-13.446 22.335z"
     id="path3300" />
  <radialGradient
     id="b"
     cx="-279.473"
     cy="-113.618"
     r="27.658"
     gradientTransform="matrix(.498 0 0 .498 150.953 101.325)"
     gradientUnits="userSpaceOnUse">
    <stop
       offset="0"
       stop-color="#08A960"
       id="stop3303" />
    <stop
       offset="1"
       stop-color="#07914B"
       id="stop3305" />
  </radialGradient>
  <path
     fill="url(#b)"
     d="M16.368 33.514l-15.102 25.249c-.583 1.248.023 2.237 1.521 2.237h6.281l13.446-22.335-6.146-10.173c.829 1.378.829 3.638 0 5.022"
     id="path3307" />
  <radialGradient
     id="c"
     cx="-270.021"
     cy="-153.299"
     r="40.54"
     gradientTransform="matrix(.498 0 0 .498 150.953 101.325)"
     gradientUnits="userSpaceOnUse">
    <stop
       offset="0"
       stop-color="#567FC0"
       id="stop3310" />
    <stop
       offset="1"
       stop-color="#557FC0"
       id="stop3312" />
  </radialGradient>
  <path
     fill="url(#c)"
     d="M2.787 1c-1.613 0-2.253 1.133-1.424 2.511l24.529 40.745c.772 1.288.795 3.317.119 4.713l5.963-9.925-22.902-38.044h-6.285z"
     id="path3314" />
  <radialGradient
     id="d"
     cx="-257.957"
     cy="-163.264"
     r="33.058"
     gradientTransform="matrix(.498 0 0 .498 150.953 101.325)"
     gradientUnits="userSpaceOnUse">
    <stop
       offset="0"
       stop-color="#E14C40"
       id="stop3317" />
    <stop
       offset="1"
       stop-color="#CD392D"
       id="stop3319" />
  </radialGradient>
  <path
     fill="url(#d)"
     d="M9.072 1l22.903 38.045 3.321-5.53c.83-1.385.83-3.645 0-5.023l-15.004-24.981c-.829-1.378-2.825-2.511-4.432-2.511h-6.788z"
     id="path3321" />
  <g
     fill="#4E4E4E"
     id="g3323">
    <path
       d="M116.07 80.967c0 2.677-.731 4.739-2.194 6.186-1.461 1.447-3.517 2.172-6.165 2.172h-5.149v-16.034h5.508c2.554 0 4.526.657 5.916 1.974 1.388 1.316 2.084 3.217 2.084 5.702zm-4.462.154c0-1.469-.289-2.559-.866-3.268-.577-.709-1.452-1.064-2.628-1.064h-1.252v8.983h.958c1.307 0 2.265-.383 2.875-1.146.607-.765.913-1.933.913-3.505zM123.288 89.545c-2.054 0-3.647-.55-4.785-1.651-1.135-1.1-1.703-2.667-1.703-4.7 0-2.098.526-3.709 1.578-4.831s2.554-1.684 4.506-1.684c1.857 0 3.292.488 4.305 1.465 1.013.976 1.518 2.381 1.518 4.217v1.908h-7.607c.029.695.282 1.24.756 1.634.476.396 1.122.592 1.943.592.747 0 1.436-.071 2.064-.213.626-.143 1.307-.386 2.04-.73v3.082c-.667.344-1.357.581-2.067.713-.713.132-1.561.198-2.548.198zm-.251-9.948c-.5 0-.919.159-1.256.477-.339.319-.536.818-.593 1.497h3.657c-.015-.599-.183-1.078-.505-1.436-.325-.359-.759-.538-1.303-.538zM133.009 89.325l-4.702-12.426h4.44l2.091 7.348.042.187.066.312.06.385.027.378h.075c0-.38.066-.793.196-1.24l2.188-7.37h4.43l-4.703 12.426h-4.21zM146.538 89.325h-4.233v-16.034h9.404v3.476h-5.171v3.061h4.768v3.476h-4.768v6.021zM158.687 89.545c-2.054 0-3.647-.55-4.785-1.651-1.135-1.1-1.703-2.667-1.703-4.7 0-2.098.526-3.709 1.578-4.831s2.554-1.684 4.506-1.684c1.857 0 3.292.488 4.305 1.465 1.013.976 1.518 2.381 1.518 4.217v1.908h-7.608c.029.695.282 1.24.756 1.634.476.396 1.122.592 1.943.592.747 0 1.436-.071 2.064-.213.626-.143 1.307-.386 2.04-.73v3.082c-.667.344-1.357.581-2.067.713-.713.132-1.56.198-2.547.198zm-.251-9.948c-.5 0-.919.159-1.256.477-.339.319-.536.818-.593 1.497h3.657c-.015-.599-.183-1.078-.505-1.436-.325-.359-.759-.538-1.303-.538zM174.699 85.508c0 1.331-.45 2.336-1.349 3.016-.901.68-2.192 1.021-3.876 1.021-.914 0-1.708-.049-2.382-.148-.676-.099-1.364-.28-2.069-.543v-3.433c.661.293 1.384.534 2.172.724s1.489.285 2.106.285c.923 0 1.382-.211 1.382-.635 0-.22-.128-.416-.386-.587-.256-.172-1.007-.506-2.247-1.004-1.132-.468-1.923-1-2.373-1.596-.45-.595-.676-1.35-.676-2.264 0-1.155.443-2.055 1.329-2.698.884-.644 2.137-.966 3.754-.966.813 0 1.577.09 2.292.269.714.179 1.456.44 2.225.784l-1.154 2.764c-.566-.255-1.165-.473-1.796-.652-.63-.179-1.146-.269-1.545-.269-.696 0-1.044.172-1.044.515 0 .212.121.393.364.543.242.15.945.455 2.106.916.862.359 1.507.71 1.932 1.053.425.344.736.748.936 1.212s.299 1.028.299 1.693zM181.765 86.156c.573 0 1.258-.143 2.056-.428v3.126c-.573.248-1.119.426-1.639.532-.518.106-1.126.159-1.822.159-1.43 0-2.461-.353-3.091-1.058-.632-.706-.948-1.79-.948-3.252v-5.122h-1.49v-1.744l1.893-1.349 1.1-2.61h2.785v2.489h3.027v3.214h-3.027v4.837c.001.804.386 1.206 1.156 1.206z"
       id="path3325" />
  </g>
  <g
     fill="#4E4E4E"
     id="g3331">
    <path
       d="M55.729 80.313h6.921v8.643c-1.88.644-3.945.966-6.197.966-2.472 0-4.383-.717-5.731-2.151-1.349-1.433-2.024-3.477-2.024-6.131 0-2.589.739-4.603 2.216-6.044 1.478-1.44 3.547-2.161 6.209-2.161 1.009 0 1.961.095 2.857.285.895.19 1.676.432 2.342.724l-1.371 3.4c-1.155-.57-2.424-.855-3.806-.855-1.265 0-2.243.411-2.934 1.234-.691.822-1.037 1.998-1.037 3.527 0 1.499.313 2.641.938 3.428.625.786 1.526 1.179 2.704 1.179.644 0 1.236-.062 1.777-.187v-2.512h-2.863v-3.345zM78.184 81.344c0 2.677-.737 4.739-2.21 6.187-1.474 1.447-3.545 2.172-6.215 2.172h-5.188v-16.038h5.551c2.574 0 4.561.658 5.961 1.975 1.401 1.317 2.101 3.218 2.101 5.704zm-4.497.154c0-1.47-.291-2.56-.872-3.268-.581-.71-1.464-1.065-2.649-1.065h-1.262v8.984h.965c1.317 0 2.281-.382 2.896-1.146s.922-1.933.922-3.505zM86.15 80.313h6.921v8.643c-1.88.644-3.945.966-6.197.966-2.472 0-4.383-.717-5.731-2.151-1.349-1.433-2.024-3.477-2.024-6.131 0-2.589.739-4.603 2.216-6.044 1.478-1.44 3.547-2.161 6.209-2.161 1.009 0 1.961.095 2.857.285.895.19 1.676.432 2.342.724l-1.371 3.4c-1.155-.57-2.424-.855-3.806-.855-1.265 0-2.243.411-2.934 1.234-.691.822-1.037 1.998-1.037 3.527 0 1.499.313 2.641.938 3.428.625.786 1.526 1.179 2.704 1.179.644 0 1.236-.062 1.777-.187v-2.512h-2.864v-3.345z"
       id="path3333" />
  </g>
  <radialGradient
     id="e"
     cx="-267.421"
     cy="23.107"
     r="20.114"
     gradientTransform="matrix(.498 0 0 .498 150.953 101.325)"
     gradientUnits="userSpaceOnUse">
    <stop
       offset="0"
       stop-color="#ccc"
       id="stop3336" />
    <stop
       offset="1"
       stop-color="#C0C0C0"
       id="stop3338" />
  </radialGradient>
  <path
     fill="url(#e)"
     d="M9.068 124h6.791c1.607 0 3.604-1.128 4.432-2.511l5.72-9.519c.677-1.396.653-3.426-.119-4.713l-3.378-5.592-13.446 22.335z"
     id="path3340" />
  <radialGradient
     id="f"
     cx="-279.473"
     cy="12.893"
     r="27.658"
     gradientTransform="matrix(.498 0 0 .498 150.953 101.325)"
     gradientUnits="userSpaceOnUse">
    <stop
       offset="0"
       stop-color="#A0A0A0"
       id="stop3343" />
    <stop
       offset="1"
       stop-color="#7B7B7B"
       id="stop3345" />
  </radialGradient>
  <path
     fill="url(#f)"
     d="M16.368 96.514l-15.102 25.249c-.583 1.248.023 2.237 1.521 2.237h6.281l13.446-22.335-6.146-10.173c.829 1.378.829 3.638 0 5.022"
     id="path3347" />
  <radialGradient
     id="g"
     cx="-270.021"
     cy="-26.789"
     r="40.54"
     gradientTransform="matrix(.498 0 0 .498 150.953 101.325)"
     gradientUnits="userSpaceOnUse">
    <stop
       offset="0"
       stop-color="#848484"
       id="stop3350" />
    <stop
       offset="1"
       stop-color="#838383"
       id="stop3352" />
  </radialGradient>
  <path
     fill="url(#g)"
     d="M2.787 64c-1.613 0-2.254 1.133-1.424 2.511l24.529 40.745c.772 1.288.795 3.317.119 4.713l5.963-9.925-22.902-38.044h-6.285z"
     id="path3354" />
  <radialGradient
     id="h"
     cx="-257.957"
     cy="-36.754"
     r="33.058"
     gradientTransform="matrix(.498 0 0 .498 150.953 101.325)"
     gradientUnits="userSpaceOnUse">
    <stop
       offset="0"
       stop-color="#626262"
       id="stop3357" />
    <stop
       offset="1"
       stop-color="#474747"
       id="stop3359" />
  </radialGradient>
  <path
     fill="url(#h)"
     d="M9.072 64l22.903 38.045 3.321-5.53c.83-1.385.83-3.645 0-5.023l-15.004-24.98c-.829-1.379-2.825-2.512-4.432-2.512h-6.788z"
     id="path3361" />
  <g
     fill="#E6E6E5"
     id="g3363">
    <path
       d="M116.07 143.967c0 2.677-.731 4.739-2.194 6.187-1.461 1.447-3.517 2.172-6.165 2.172h-5.149v-16.035h5.508c2.554 0 4.526.657 5.916 1.974 1.388 1.316 2.084 3.217 2.084 5.702zm-4.462.153c0-1.469-.289-2.558-.866-3.268-.577-.709-1.452-1.064-2.628-1.064h-1.252v8.983h.958c1.307 0 2.265-.383 2.875-1.146.607-.764.913-1.932.913-3.505zM123.288 152.545c-2.054 0-3.647-.551-4.785-1.652-1.135-1.1-1.703-2.666-1.703-4.7 0-2.098.526-3.708 1.578-4.83s2.554-1.685 4.506-1.685c1.857 0 3.292.489 4.305 1.465s1.518 2.382 1.518 4.217v1.908h-7.607c.029.696.282 1.24.756 1.635.476.396 1.122.591 1.943.591.747 0 1.436-.071 2.064-.212.626-.143 1.307-.386 2.04-.731v3.082c-.667.344-1.357.582-2.067.714-.713.132-1.561.198-2.548.198zm-.251-9.948c-.5 0-.919.159-1.256.476-.339.319-.536.818-.593 1.498h3.657c-.015-.599-.183-1.078-.505-1.437-.325-.358-.759-.537-1.303-.537zM133.009 152.325l-4.702-12.427h4.44l2.091 7.348.042.187.066.313.06.385.027.377h.075c0-.379.066-.793.196-1.24l2.188-7.37h4.43l-4.703 12.427h-4.21zM146.538 152.325h-4.233v-16.035h9.404v3.475h-5.171v3.062h4.768v3.475h-4.768v6.023zM158.687 152.545c-2.054 0-3.647-.551-4.785-1.652-1.135-1.1-1.703-2.666-1.703-4.7 0-2.098.526-3.708 1.578-4.83s2.554-1.685 4.506-1.685c1.857 0 3.292.489 4.305 1.465s1.518 2.382 1.518 4.217v1.908h-7.608c.029.696.282 1.24.756 1.635.476.396 1.122.591 1.943.591.747 0 1.436-.071 2.064-.212.626-.143 1.307-.386 2.04-.731v3.082c-.667.344-1.357.582-2.067.714-.713.132-1.56.198-2.547.198zm-.251-9.948c-.5 0-.919.159-1.256.476-.339.319-.536.818-.593 1.498h3.657c-.015-.599-.183-1.078-.505-1.437-.325-.358-.759-.537-1.303-.537zM174.699 148.508c0 1.331-.45 2.336-1.349 3.016-.901.681-2.192 1.022-3.876 1.022-.914 0-1.708-.049-2.382-.148-.676-.099-1.364-.28-2.069-.544v-3.433c.661.293 1.384.535 2.172.725s1.489.284 2.106.284c.923 0 1.382-.211 1.382-.635 0-.22-.128-.416-.386-.586-.256-.172-1.007-.507-2.247-1.005-1.132-.467-1.923-1-2.373-1.595s-.677-1.353-.677-2.267c0-1.155.443-2.054 1.329-2.697.884-.645 2.137-.967 3.754-.967.813 0 1.577.09 2.292.269.714.179 1.456.441 2.225.784l-1.154 2.765c-.566-.256-1.165-.474-1.796-.652-.63-.179-1.146-.269-1.545-.269-.696 0-1.044.172-1.044.515 0 .212.121.394.364.544.242.15.945.454 2.106.916.862.359 1.507.709 1.932 1.053s.736.747.936 1.212c.2.462.3 1.028.3 1.693zM181.765 149.156c.573 0 1.258-.143 2.056-.428v3.126c-.573.249-1.119.427-1.639.533-.518.106-1.126.159-1.822.159-1.43 0-2.461-.353-3.091-1.058-.632-.707-.948-1.791-.948-3.252v-5.123h-1.49v-1.743l1.893-1.349 1.1-2.609h2.785v2.488h3.027v3.214h-3.027v4.838c.001.801.386 1.204 1.156 1.204z"
       id="path3365" />
  </g>
  <g
     fill="#E6E6E5"
     id="g3371">
    <path
       d="M55.729 143.313h6.921v8.643c-1.88.645-3.945.967-6.197.967-2.472 0-4.383-.718-5.731-2.151-1.349-1.432-2.024-3.477-2.024-6.13 0-2.589.739-4.603 2.216-6.044 1.478-1.441 3.547-2.161 6.209-2.161 1.009 0 1.961.095 2.857.284.895.19 1.676.432 2.342.725l-1.371 3.4c-1.155-.571-2.424-.855-3.806-.855-1.265 0-2.243.41-2.934 1.234-.691.822-1.037 1.998-1.037 3.527 0 1.498.313 2.64.938 3.428.625.786 1.526 1.179 2.704 1.179.644 0 1.236-.062 1.777-.187v-2.512h-2.863v-3.347zM78.184 144.344c0 2.677-.737 4.739-2.21 6.187-1.474 1.447-3.545 2.172-6.215 2.172h-5.188v-16.038h5.551c2.574 0 4.561.659 5.961 1.976 1.401 1.316 2.101 3.216 2.101 5.703zm-4.497.154c0-1.47-.291-2.56-.872-3.268-.581-.71-1.464-1.066-2.649-1.066h-1.262v8.985h.965c1.317 0 2.281-.383 2.896-1.146.615-.766.922-1.934.922-3.505zM86.15 143.313h6.921v8.643c-1.88.645-3.945.967-6.197.967-2.472 0-4.383-.718-5.731-2.151-1.349-1.432-2.024-3.477-2.024-6.13 0-2.589.739-4.603 2.216-6.044 1.478-1.441 3.547-2.161 6.209-2.161 1.009 0 1.961.095 2.857.284.895.19 1.676.432 2.342.725l-1.371 3.4c-1.155-.571-2.424-.855-3.806-.855-1.265 0-2.243.41-2.934 1.234-.691.822-1.037 1.998-1.037 3.527 0 1.498.313 2.64.938 3.428.625.786 1.526 1.179 2.704 1.179.644 0 1.236-.062 1.777-.187v-2.512h-2.864v-3.347z"
       id="path3373" />
  </g>
  <radialGradient
     id="i"
     cx="-267.421"
     cy="149.617"
     r="20.114"
     gradientTransform="matrix(.498 0 0 .498 150.953 101.325)"
     gradientUnits="userSpaceOnUse">
    <stop
       offset="0"
       stop-color="#FFCF4F"
       id="stop3376" />
    <stop
       offset="1"
       stop-color="#F4C236"
       id="stop3378" />
  </radialGradient>
  <path
     fill="url(#i)"
     d="M9.068 187h6.791c1.607 0 3.604-1.128 4.432-2.511l5.72-9.519c.677-1.396.653-3.426-.119-4.713l-3.378-5.592-13.446 22.335z"
     id="path3380" />
  <radialGradient
     id="j"
     cx="-279.473"
     cy="139.403"
     r="27.658"
     gradientTransform="matrix(.498 0 0 .498 150.953 101.325)"
     gradientUnits="userSpaceOnUse">
    <stop
       offset="0"
       stop-color="#08A960"
       id="stop3383" />
    <stop
       offset="1"
       stop-color="#07914B"
       id="stop3385" />
  </radialGradient>
  <path
     fill="url(#j)"
     d="M16.368 159.514l-15.102 25.249c-.583 1.248.023 2.237 1.521 2.237h6.281l13.446-22.335-6.146-10.173c.829 1.378.829 3.638 0 5.022"
     id="path3387" />
  <radialGradient
     id="k"
     cx="-270.021"
     cy="99.721"
     r="40.54"
     gradientTransform="matrix(.498 0 0 .498 150.953 101.325)"
     gradientUnits="userSpaceOnUse">
    <stop
       offset="0"
       stop-color="#567FC0"
       id="stop3390" />
    <stop
       offset="1"
       stop-color="#557FC0"
       id="stop3392" />
  </radialGradient>
  <path
     fill="url(#k)"
     d="M2.787 127c-1.613 0-2.254 1.133-1.424 2.511l24.529 40.745c.772 1.288.795 3.317.119 4.713l5.963-9.925-22.902-38.044h-6.285z"
     id="path3394" />
  <radialGradient
     id="l"
     cx="-257.957"
     cy="89.756"
     r="33.058"
     gradientTransform="matrix(.498 0 0 .498 150.953 101.325)"
     gradientUnits="userSpaceOnUse">
    <stop
       offset="0"
       stop-color="#E14C40"
       id="stop3397" />
    <stop
       offset="1"
       stop-color="#CD392D"
       id="stop3399" />
  </radialGradient>
  <path
     fill="url(#l)"
     d="M9.072 127l22.903 38.045 3.321-5.53c.83-1.385.83-3.645 0-5.023l-15.004-24.981c-.829-1.378-2.825-2.511-4.432-2.511h-6.788z"
     id="path3401" />
  <text
     xml:space="preserve"
     style="font-size:18px;font-style:normal;font-variant:normal;font-weight:bold;font-stretch:normal;line-height:125%;letter-spacing:0px;word-spacing:0px;fill:#000000;fill-opacity:1;stroke:none;font-family:Open Sans;-inkscape-font-specification:Open Sans Bold"
     x="48.66806"
     y="46.705635"
     id="text3409"
     sodipodi:linespacing="125%"><tspan
       sodipodi:role="line"
       id="tspan3411"
       x="48.66806"
       y="46.705635"
       style="font-style:normal;fill:#4e4e4e;fill-opacity:1;-inkscape-font-specification:Open Sans Bold">2014 Istanbul</tspan></text>
  <text
     xml:space="preserve"
     style="font-size:18px;font-style:normal;font-variant:normal;font-weight:bold;font-stretch:normal;line-height:125%;letter-spacing:0px;word-spacing:0px;fill:#4e4e4e;fill-opacity:1;stroke:none;font-family:Open Sans;-inkscape-font-specification:Open Sans Bold"
     x="50.237995"
     y="107.9332"
     id="text4204"
     sodipodi:linespacing="125%"><tspan
       sodipodi:role="line"
       id="tspan4206"
       x="50.237995"
       y="107.9332">2014 Istanbul</tspan></text>
  <text
     xml:space="preserve"
     style="font-size:18px;font-style:normal;font-variant:normal;font-weight:bold;font-stretch:normal;line-height:125%;letter-spacing:0px;word-spacing:0px;fill:#e7e8e8;fill-opacity:1;stroke:none;font-family:Open Sans;-inkscape-font-specification:Open Sans Bold"
     x="49.453026"
     y="173.0856"
     id="text4208"
     sodipodi:linespacing="125%"><tspan
       sodipodi:role="line"
       id="tspan4210"
       x="49.453026"
       y="173.0856">2014 Istanbul</tspan></text>
  <text
     xml:space="preserve"
     style="font-size:40px;font-style:normal;font-weight:normal;line-height:125%;letter-spacing:0px;word-spacing:0px;fill:#000000;fill-opacity:1;stroke:none;font-family:Sans"
     x="230.78079"
     y="150.3215"
     id="text4212"
     sodipodi:linespacing="125%"><tspan
       sodipodi:role="line"
       id="tspan4214"></tspan></text>
</svg>